<svg width="21" height="19" viewBox="0 0 21 19" fill="none" xmlns="http://www.w3.org/2000/svg">
  <path
    d="M20.3651 3.89367C20.0413 3.13173 19.5744 2.44126 18.9905 1.86092C18.4062 1.27885 17.7173 0.816287 16.9612 0.498386C16.1773 0.167432 15.3364 -0.0019684 14.4875 1.7256e-05C13.2965 1.7256e-05 12.1345 0.331444 11.1247 0.957473C10.8831 1.10723 10.6536 1.27172 10.4362 1.45093C10.2188 1.27172 9.98928 1.10723 9.7477 0.957473C8.7379 0.331444 7.5759 1.7256e-05 6.38492 1.7256e-05C5.52732 1.7256e-05 4.69629 0.166958 3.91116 0.498386C3.1526 0.817538 2.46893 1.27663 1.8819 1.86092C1.29727 2.4406 0.830252 3.13123 0.507315 3.89367C0.171521 4.68664 0 5.52871 0 6.39533C0 7.21285 0.164274 8.06474 0.490405 8.93136C0.763388 9.65559 1.15475 10.4068 1.65481 11.1654C2.44719 12.3659 3.53671 13.618 4.88955 14.8872C7.1314 16.9912 9.35151 18.4446 9.44572 18.5035L10.0183 18.8766C10.2719 19.0411 10.5981 19.0411 10.8517 18.8766L11.4243 18.5035C11.5185 18.4421 13.7362 16.9912 15.9804 14.8872C17.3333 13.618 18.4228 12.3659 19.2152 11.1654C19.7152 10.4068 20.109 9.65559 20.3796 8.93136C20.7057 8.06474 20.87 7.21285 20.87 6.39533C20.8724 5.52871 20.7009 4.68664 20.3651 3.89367Z"
    fill="url(#paint0_linear_36332_2)" />
  <defs>
    <linearGradient id="paint0_linear_36332_2" x1="10.435" y1="0" x2="10.435" y2="19" gradientUnits="userSpaceOnUse">
      <stop stop-color="#FFB0B0" />
      <stop offset="1" stop-color="#FF4343" />
    </linearGradient>
  </defs>
</svg>
